<svg id="sprite" xmlns="http://www.w3.org/2000/svg" xmlns:xlink="http://www.w3.org/1999/xlink" viewBox="0 0 100.64 50.5"><defs><style>.cls-1{fill:#e1c34b;}.cls-2{fill:none;}.cls-3{fill:#665822;}</style><symbol id="star_checked" data-name="star checked" viewBox="0 0 50 50"><polygon class="cls-3" points="25 38 28.38 28.28 38.67 28.07 30.47 21.85 33.45 12 25 17.88 16.55 12 19.53 21.85 11.33 28.07 21.62 28.28 25 38"/><rect class="cls-2" width="50" height="50"/></symbol><symbol id="star" data-name="star" viewBox="0 0 50 50"><polygon class="cls-1" points="25 38 28.38 28.28 38.67 28.07 30.47 21.85 33.45 12 25 17.88 16.55 12 19.53 21.85 11.33 28.07 21.62 28.28 25 38"/><rect class="cls-2" width="50" height="50"/></symbol></defs><use width="50" height="50" transform="matrix(1, 0, 0, -1, 0, 50.5)" xlink:href="#star_checked"/><use width="50" height="50" transform="matrix(1, 0, 0, -1, 50.13, 50.5)" xlink:href="#star"/></svg>